<?xml version="1.0" standalone="no"?>
<!DOCTYPE svg PUBLIC "-//W3C//DTD SVG 20010904//EN"
 "http://www.w3.org/TR/2001/REC-SVG-20010904/DTD/svg10.dtd">
<svg version="1.0" xmlns="http://www.w3.org/2000/svg"
 width="450.000000pt" height="450.000000pt" viewBox="0 0 450.000000 450.000000"
 preserveAspectRatio="xMidYMid meet">

<g transform="translate(0.000000,450.000000) scale(0.100000,-0.100000)"
fill="#000000" stroke="none">
<path d="M837 2729 c-54 -36 -122 -109 -145 -157 -18 -38 -8 -67 24 -67 14 0
18 6 16 26 -3 34 50 112 105 151 66 48 120 37 106 -22 -3 -14 -41 -100 -84
-192 -43 -91 -80 -176 -81 -189 -6 -46 20 -26 66 52 27 44 74 113 106 152 65
82 182 197 200 197 21 0 4 -54 -59 -195 -68 -150 -73 -168 -49 -173 11 -2 33
23 70 80 30 46 76 106 102 135 54 60 124 118 132 110 3 -3 -21 -66 -54 -139
-68 -151 -79 -192 -62 -213 20 -25 71 -17 109 15 l34 29 11 -22 c14 -28 59
-34 91 -13 31 21 35 20 35 -4 0 -11 3 -20 7 -20 3 0 47 42 96 93 93 97 113
102 82 22 -19 -52 -17 -84 8 -99 14 -9 28 -6 65 15 l48 27 10 -22 c15 -35 64
-33 110 5 52 43 87 86 82 101 -3 7 -25 -7 -54 -34 -103 -96 -126 -83 -65 35
28 53 38 84 32 90 -13 13 -35 -5 -73 -62 -41 -61 -99 -121 -116 -121 -15 0
-14 10 9 93 12 42 11 49 -3 63 -25 26 -64 10 -120 -49 l-50 -52 17 40 c28 64
29 75 11 75 -9 0 -29 -21 -44 -46 -43 -73 -91 -124 -118 -124 -13 0 -24 5 -24
12 0 6 18 45 41 86 27 49 37 78 31 84 -14 14 -27 4 -74 -60 -57 -80 -109 -132
-130 -132 -27 0 -22 27 23 121 93 191 102 230 59 244 -30 9 -95 -30 -162 -98
l-61 -62 23 45 c45 89 45 126 -1 150 -30 17 -93 -25 -173 -112 l-66 -73 35 77
c46 100 45 122 -2 147 -36 19 -77 13 -126 -20z"/>
<path d="M2380 2749 c-43 -18 -90 -59 -110 -99 -24 -47 -25 -69 -5 -96 21 -28
18 -40 -15 -54 -41 -17 -97 -81 -109 -125 -14 -50 -4 -88 30 -121 26 -25 32
-26 101 -22 81 5 119 21 180 76 30 26 40 31 34 17 -15 -41 -19 -75 -7 -75 7 0
33 24 59 53 134 149 163 162 126 58 -29 -85 5 -119 78 -81 33 17 43 19 49 8 5
-7 9 -16 9 -20 0 -4 9 -9 19 -13 27 -8 87 19 122 56 16 17 29 26 29 20 0 -33
-37 -73 -109 -120 -100 -65 -118 -92 -85 -125 42 -42 120 2 175 100 18 31 51
68 82 92 l53 40 17 -29 c32 -56 95 -55 174 1 24 18 45 31 46 29 1 -2 9 -17 17
-34 23 -44 72 -46 128 -5 l43 31 25 -31 c14 -16 34 -30 45 -30 61 0 199 85
230 141 17 32 -6 22 -70 -31 l-61 -51 0 60 c0 33 5 83 11 111 18 85 -2 79 -92
-27 -79 -93 -163 -163 -195 -163 -21 0 -24 4 -24 41 0 36 7 48 73 117 117 124
166 205 153 257 -5 19 -13 25 -33 25 -46 0 -117 -87 -184 -226 -62 -128 -110
-186 -177 -213 -26 -11 -35 -11 -47 -1 -26 21 -17 39 33 64 54 28 112 87 112
115 0 28 -26 44 -57 36 -40 -10 -78 -40 -161 -127 -41 -43 -78 -78 -83 -78
-10 0 14 70 43 121 21 37 21 39 3 59 -45 50 -130 15 -246 -101 -101 -100 -131
-105 -94 -16 48 115 -17 143 -116 50 -27 -25 -49 -43 -49 -39 0 4 9 25 21 48
18 36 19 42 6 55 -13 13 -17 12 -33 -13 -36 -54 -144 -155 -186 -174 -24 -11
-62 -20 -85 -20 -34 0 -46 5 -67 31 -30 36 -28 54 12 109 48 65 89 91 154 99
71 8 74 34 4 42 -49 5 -76 26 -76 58 0 23 85 98 120 106 45 10 66 -11 49 -48
-7 -15 -9 -30 -6 -33 11 -12 37 5 46 30 26 67 -49 117 -129 85z m1190 -78 c0
-11 -22 -52 -49 -93 -86 -128 -131 -149 -66 -31 41 75 92 143 106 143 5 0 9
-9 9 -19z m-544 -215 c9 -24 -163 -175 -185 -162 -26 17 33 107 97 147 50 32
80 37 88 15z m234 -1 c0 -19 -30 -49 -69 -70 -43 -22 -40 -1 6 47 39 40 63 49
63 23z m366 -131 c-8 -30 -35 -38 -57 -18 -26 23 -24 30 19 83 l37 46 3 -44
c2 -25 1 -54 -2 -67z m-712 -126 c-34 -61 -84 -105 -104 -93 -16 10 2 34 51
71 46 35 65 43 53 22z"/>
<path d="M1506 2594 c-9 -8 -16 -22 -16 -30 0 -20 34 -17 54 5 31 34 -6 58
-38 25z"/>
<path d="M1946 2591 c-19 -20 -14 -41 8 -41 16 0 46 32 46 48 0 19 -35 14 -54
-7z"/>
<path d="M1310 1909 c0 -52 3 -70 13 -67 6 3 13 17 15 31 3 21 9 27 27 27 13
0 27 5 30 10 4 6 -7 10 -24 10 -24 0 -31 4 -31 20 0 15 7 20 29 20 17 0 33 5
36 10 4 6 -13 10 -44 10 l-51 0 0 -71z"/>
<path d="M1499 1964 c-21 -25 -17 -93 6 -110 27 -20 79 -18 98 4 23 25 22 85
-1 105 -24 22 -85 22 -103 1z m79 -16 c7 -7 12 -24 12 -38 0 -51 -52 -69 -72
-25 -22 49 25 98 60 63z"/>
<path d="M1690 1970 c0 -5 9 -10 20 -10 18 0 20 -7 20 -60 0 -47 3 -60 15 -60
12 0 15 13 15 60 0 57 1 60 25 60 14 0 25 5 25 10 0 6 -27 10 -60 10 -33 0
-60 -4 -60 -10z"/>
<path d="M1896 1964 c-22 -22 -21 -87 2 -107 19 -18 68 -22 89 -9 6 4 16 20
22 35 11 29 0 75 -22 89 -21 13 -75 9 -91 -8z m84 -28 c17 -46 -9 -84 -50 -71
-21 7 -30 43 -19 73 12 31 57 30 69 -2z"/>
<path d="M2115 1960 c-42 -46 -10 -120 51 -120 50 0 64 9 64 41 0 26 -4 29
-30 29 -16 0 -30 -4 -30 -10 0 -5 7 -10 15 -10 8 0 15 -7 15 -15 0 -10 -10
-15 -30 -15 -37 0 -55 35 -40 75 11 29 50 34 70 10 17 -20 32 -8 20 16 -15 27
-80 26 -105 -1z"/>
<path d="M2320 1911 c0 -56 3 -71 15 -71 10 0 15 10 15 30 0 18 5 30 13 30 7
0 21 -13 30 -30 10 -16 25 -30 33 -30 18 0 18 10 -2 38 -12 18 -13 26 -4 37 6
8 10 24 8 37 -3 20 -9 23 -55 26 l-53 3 0 -70z m80 29 c0 -15 -7 -20 -25 -20
-18 0 -25 5 -25 20 0 15 7 20 25 20 18 0 25 -5 25 -20z"/>
<path d="M2536 1915 c-14 -36 -26 -67 -26 -70 0 -12 28 -3 34 10 3 9 18 15 35
15 16 0 31 -6 35 -15 6 -18 26 -20 26 -3 0 7 -10 38 -22 70 -31 78 -48 76 -82
-7z m58 -17 c-7 -10 -34 -10 -34 0 0 4 3 18 7 31 l6 23 13 -23 c7 -13 10 -27
8 -31z"/>
<path d="M2730 1910 c0 -40 4 -70 10 -70 6 0 10 14 10 30 0 27 3 30 30 30 38
0 40 18 3 22 -40 4 -36 32 5 36 48 5 39 22 -13 22 l-45 0 0 -70z"/>
<path d="M2910 1910 c0 -56 3 -70 15 -70 12 0 15 14 15 70 0 56 -3 70 -15 70
-12 0 -15 -14 -15 -70z"/>
<path d="M3030 1910 l0 -70 55 0 c30 0 55 5 55 10 0 6 -18 10 -40 10 -33 0
-40 3 -40 20 0 16 7 20 35 20 19 0 35 5 35 10 0 6 -16 10 -35 10 -28 0 -35 4
-35 20 0 17 7 20 40 20 22 0 40 5 40 10 0 6 -25 10 -55 10 l-55 0 0 -70z"/>
</g>
</svg>
